<svg width="320" height="220" viewBox="0 0 320 220" fill="none" xmlns="http://www.w3.org/2000/svg">
  <g stroke="currentColor" stroke-width="4" stroke-linecap="round" stroke-linejoin="round" fill="none">
    <path d="M173 58c-7.5-6.8-18-10.1-28.2-8.9-9 .9-17.5 5.5-23.4 12.6-3.6 4.3-6.1 9.5-7.5 15-2.7 10.7-1.2 22.1.2 33.2 1.5 11.6 2.7 23.5-.4 34.7-2.3 8.3-7.2 16-14.5 21-8.5 5.8-19.6 7.1-29.1 3.5"/>
    <path d="M196 58c7.5-6.8 18-10.1 28.2-8.9 9 .9 17.5 5.5 23.4 12.6 3.6 4.3 6.1 9.5 7.5 15 2.7 10.7 1.2 22.1-.2 33.2-1.5 11.6-2.7 23.5.4 34.7 2.3 8.3 7.2 16 14.5 21 8.5 5.8 19.6 7.1 29.1 3.5"/>
    <path d="M166 77c0 13.8-10.6 25-23.5 25S119 90.8 119 77s10.6-23 23.5-23S166 63.2 166 77Z"/>
    <path d="M207 77c0 13.8-10.6 25-23.5 25S160 90.8 160 77s10.6-23 23.5-23S207 63.2 207 77Z"/>
    <path d="M118 98c2.4 17.4 15.6 31 34 31 18.4 0 31.6-13.6 34-31"/>
    <path d="M136 120c-5 5.3-8 12.6-8 20 0 15.5 12.5 28 28 28s28-12.5 28-28c0-7.4-3-14.7-8-20"/>
    <path d="M158 132c-6.3 1.7-10.9 7.5-10.9 14 0 8 6.4 14.4 14.4 14.4S176 154 176 146c0-6.5-4.6-12.3-10.9-14"/>
    <path d="M110 108c-11.4-1.3-22.7 3.6-29.8 12.8-4.3 5.5-6.8 12.4-7 19.4-.3 6.7 1.4 13.4 5 19.1 2.8 4.5 6.7 8.2 11.1 11.1 8.3 5.6 18.2 8.6 28.2 8.6"/>
    <path d="M214 108c11.4-1.3 22.7 3.6 29.8 12.8 4.3 5.5 6.8 12.4 7 19.4.3 6.7-1.4 13.4-5 19.1-2.8 4.5-6.7 8.2-11.1 11.1-8.3 5.6-18.2 8.6-28.2 8.6"/>
    <path d="M142 73c-5.8-6-14.5-9.3-22.9-8.4-8.3.9-16 6.2-20 13.6"/>
    <path d="M182 73c5.8-6 14.5-9.3 22.9-8.4 8.3.9 16 6.2 20 13.6"/>
  </g>
</svg>
