<svg width="320" height="220" viewBox="0 0 320 220" fill="none" xmlns="http://www.w3.org/2000/svg">
  <g stroke="currentColor" stroke-width="4" stroke-linecap="round" stroke-linejoin="round" fill="none">
    <path d="M156 58c-7.2 8-10 19.3-7.2 29.6 2.1 7.6 7.2 14.3 13.7 18.8 6.2 4.2 13.8 6.5 21.3 6.1 7.5-.4 14.9-3.4 20.4-8.5 6.5-6 10.3-15 9.6-23.8-.6-8.7-5.4-17-12.7-22.1-7.6-5.5-17.5-7.2-26.8-6.2-6.9.8-13.6 3.7-18.3 8.8Z"/>
    <path d="M151 82c-5.8-6-14.5-9.3-22.9-8.4-8.3.9-16 6.2-20 13.6"/>
    <path d="M205 77c6.7-4.1 15.2-5.2 22.8-2.9 7.5 2.3 14 7.9 17.4 15 3.4 7.1 3.7 15.6.8 22.9"/>
    <path d="M148 116c-9.9 5.8-17.5 15.2-21.2 26-2.7 8-3 16.8-1 25 2.8 11.6 9.8 22 19.4 29.1 9.7 7.1 21.9 10.8 33.8 10.4 13-.4 25.5-5.6 35.3-14.2 9.8-8.6 16.5-20.7 18.5-33.6 1.6-10.3.1-21-4.8-30.3-6.2-12.2-17.5-21.7-30.7-26-12.3-4.1-26.2-3.1-38.3 3.6Z"/>
    <path d="M171 119c-3 4.5-4.6 9.9-4.6 15.3 0 7.7 2.9 15.2 8.1 20.9 5.2 5.7 12.6 9.5 20.3 10.6 7.7 1.1 15.8-.6 22.4-4.8 6.6-4.2 11.6-10.9 13.6-18.5"/>
    <path d="M155 167c-8 1-15.4 6.5-18.5 14-2.2 5.3-2 11.5.7 16.7 2.7 5.2 7.8 9.2 13.6 10.4"/>
    <path d="M182 77c-3.1-4.6-8.4-7.5-13.9-7.5-5.5 0-10.8 2.9-13.9 7.5"/>
    <path d="M147 53c-2.7-6.7-9.1-11.7-16.2-13.3-7.1-1.5-14.8.4-20.4 5.1-5.6 4.6-9 11.8-9 19.1"/>
    <path d="M202 50c3.4-5.9 9.9-10 16.6-10.8 6.7-.8 13.8 1.6 18.6 6.4 4.8 4.8 7.4 11.8 7 18.6"/>
    <path d="M132 104c-6.3-1.5-12.7-2.3-19.1-2.3-5.9 0-11.9.6-17.4 2.9-6.8 2.9-12.4 8.6-14.9 15.6-2.6 7-2 15 1.7 21.5"/>
    <path d="M214 104c6.3-1.5 12.7-2.3 19.1-2.3 5.9 0 11.9.6 17.4 2.9 6.8 2.9 12.4 8.6 14.9 15.6 2.6 7 2 15-1.7 21.5"/>
  </g>
</svg>
