<svg width="360" height="240" viewBox="0 0 360 240" fill="none" xmlns="http://www.w3.org/2000/svg">
  <g stroke="currentColor" stroke-width="4" stroke-linecap="round" stroke-linejoin="round" fill="none">
    <path d="M176 64c-7.3 7-11.2 17.2-10.4 27.1.7 9.6 5.7 18.7 13 24.8 7.8 6.5 18.4 9.5 28.6 8.1 10.2-1.4 19.7-7 25.7-15.4 4.9-7 7-15.8 6-24.2-1.2-9.8-6.4-18.8-14.1-25-8.4-6.8-19.7-9.8-30.3-8.1-9 1.4-17.4 6.6-22.9 14.7Z"/>
    <path d="M172 88c-6.5-6-15.9-8.7-24.6-6.9-6.9 1.4-13.2 5.4-17.4 11.1-3.6 4.9-5.7 10.9-6 17"/>
    <path d="M214 88c5.9-2.5 12.8-2.6 18.7-.1 5.9 2.5 10.7 7.6 12.9 13.7 2.2 6.1 1.9 13-.8 18.9"/>
    <path d="M168 128c-9.2 2.6-17.3 8.6-22.4 16.7-5.2 8-7.2 17.9-5.7 27.4 1.8 11.4 8.2 21.9 17.3 29 9.1 7.1 20.8 10.8 32.3 10.3 11.5-.5 22.8-5 31.4-12.7 7.4-6.5 12.9-15.2 15.5-24.7 2.6-9.5 2.2-19.7-1.2-28.9-4.7-12.8-15.1-23.5-27.7-29.2-10.3-4.7-22.6-5.5-33.2-1Z"/>
    <path d="M190 133c-3 7-3.4 15-1.3 22.3 2.1 7.3 6.8 13.9 13 18.4 6.2 4.5 13.9 6.9 21.5 6.6 7.6-.3 15.1-3.2 20.6-8.5 5.5-5.4 8.8-13 9-20.8"/>
    <path d="M165 170c-8.6 1.3-16.5 6.7-21 14.2-3.1 5.2-4.5 11.6-3.9 17.7.5 6.1 3 12.1 7.1 16.7 4.1 4.7 9.8 7.9 15.9 9"/>
    <path d="M208 96c-2.6-5.2-7.7-9.1-13.5-10.2-5.8-1.2-12 0.4-16.6 4.2"/>
    <path d="M167 74c-2.3-5.5-6.7-10.1-12.1-12.7-5.4-2.6-11.7-3.2-17.5-1.8-5.7 1.4-11 4.9-14.6 9.6-3.6 4.8-5.6 10.9-5.6 17"/>
    <path d="M214 72c2.8-5.2 7.9-9.1 13.5-10.8 5.6-1.7 11.8-1.2 17.2 1.4 5.4 2.6 9.8 7.3 12.1 12.8 2.3 5.5 2.5 11.9.5 17.6"/>
    <path d="M150 140c-7.8-3.5-16.7-4.7-25.2-3.3-6.3 1.1-12.4 3.8-17.2 8.1-4.8 4.3-8.2 10.2-9.7 16.5-1.6 6.3-1.3 13 .9 19.1 2.2 6.1 6.1 11.7 11.3 15.7 4.8 3.7 10.6 6 16.5 6.9 5.9.9 12 .5 17.8-1.2"/>
    <path d="M230 140c7.8-3.5 16.7-4.7 25.2-3.3 6.3 1.1 12.4 3.8 17.2 8.1 4.8 4.3 8.2 10.2 9.7 16.5 1.6 6.3 1.3 13-.9 19.1-2.2 6.1-6.1 11.7-11.3 15.7-4.8 3.7-10.6 6-16.5 6.9-5.9.9-12 .5-17.8-1.2"/>
    <path d="M160 158c-6.2-2-13-1.7-19 .8-5.5 2.2-10.3 6.3-13.3 11.4-3 5.2-4.2 11.4-3.2 17.3"/>
    <path d="M220 158c6.2-2 13-1.7 19 .8 5.5 2.2 10.3 6.3 13.3 11.4 3 5.2 4.2 11.4 3.2 17.3"/>
  </g>
</svg>
