<svg width="320" height="220" viewBox="0 0 320 220" fill="none" xmlns="http://www.w3.org/2000/svg">
  <g stroke="currentColor" stroke-width="4" stroke-linecap="round" stroke-linejoin="round" fill="none">
    <path d="M155 48c-8 6-15.3 13.4-18 22-3.7 11.6 3.1 24 4 36 1 12-3.4 24.3-6 36.4-1.9 8.5-1.1 17.7 3 25.6 5.7 11 17.8 17.9 30.4 17.9 12.6 0 24.7-6.9 30.4-17.9 4.1-7.9 4.9-17.1 3-25.6-2.6-12.1-7-24.4-6-36.4 1-12 7.7-24.3 4-36-2.7-8.6-10-16-18-22-3.4-2.6-8.4-2.6-11.8 0Z"/>
    <path d="M155 71c-10 7-17 18.4-17 31 0 16.6 9.8 31 22 31s22-14.4 22-31c0-12.6-7-24-17-31"/>
    <path d="M148 107c-6.3 9.4-8.1 21.7-4.5 32.7M172 107c6.3 9.4 8.1 21.7 4.5 32.7"/>
    <path d="M170 141c5.2 1.8 9.7 5.5 12.4 10.3 3.3 5.9 4.1 13.2 3.6 20.1M150 141c-5.2 1.8-9.7 5.5-12.4 10.3-3.3 5.9-4.1 13.2-3.6 20.1"/>
    <path d="M155 87c1.3 2.8 4.3 4.7 7.4 4.7 3.1 0 6.1-1.9 7.4-4.7M146 85c-3.2-2.9-7.2-4.7-11.5-5.1-6.6-.7-13.4 1.7-17.9 6.6-3 3.2-4.9 7.3-5.9 11.6-2.8 12 .9 24.8 0 37-1.2 16.7-10.9 30.7-28 34.5-5.8 1.3-11.9 1.2-17.9 1"/>
    <path d="M174 85c3.2-2.9 7.2-4.7 11.5-5.1 6.6-.7 13.4 1.7 17.9 6.6 3 3.2 4.9 7.3 5.9 11.6 2.8 12-.9 24.8 0 37 1.2 16.7 10.9 30.7 28 34.5 5.8 1.3 11.9 1.2 17.9 1"/>
    <path d="M139 52c-6.9-6.8-16.6-10.6-26.4-10.2-9.9.5-19.5 5.5-26.2 13.1"/>
    <path d="M181 52c6.9-6.8 16.6-10.6 26.4-10.2 9.9.5 19.5 5.5 26.2 13.1"/>
  </g>
</svg>
